<?xml version="1.0" encoding="UTF-8" standalone="no"?>
<svg
   id="svg4379"
   width="200"
   height="200"
   inkscape:version="1.2.1 (9c6d41e410, 2022-07-14)"
   sodipodi:docname="kde.svg"
   version="1.1"
   viewBox="0 0 200 200"
   xmlns:inkscape="http://www.inkscape.org/namespaces/inkscape"
   xmlns:sodipodi="http://sodipodi.sourceforge.net/DTD/sodipodi-0.dtd"
   xmlns:xlink="http://www.w3.org/1999/xlink"
   xmlns="http://www.w3.org/2000/svg"
   xmlns:svg="http://www.w3.org/2000/svg"
   xmlns:rdf="http://www.w3.org/1999/02/22-rdf-syntax-ns#"
   xmlns:cc="http://creativecommons.org/ns#"
   xmlns:dc="http://purl.org/dc/elements/1.1/">
  <metadata
     id="metadata10">
    <rdf:RDF>
      <cc:Work
         rdf:about="">
        <dc:format>image/svg+xml</dc:format>
        <dc:type
           rdf:resource="http://purl.org/dc/dcmitype/StillImage" />
      </cc:Work>
    </rdf:RDF>
  </metadata>
  <defs
     id="defs8">
    <style
       id="current-color-scheme"
       type="text/css">
      .ColorScheme-Text {
        color:#31363b;
      }
      </style>
    <style
       type="text/css"
       id="style832" />
    <linearGradient
       id="linearGradient8660"
       x1="-7.6728001"
       x2="-5.027"
       y1="-29.104"
       y2="-27.252001"
       gradientTransform="matrix(19.102507,0,0,19.102507,-8.3673106,603.14466)"
       gradientUnits="userSpaceOnUse">
      <stop
         stop-color="#00bffb"
         offset="0"
         id="stop17" />
      <stop
         stop-color="#01a0f3"
         offset="1"
         id="stop19" />
    </linearGradient>
    <linearGradient
       id="linearGradient8668"
       x1="-4.7624002"
       x2="-1.852"
       y1="-27.252001"
       y2="-30.122999"
       gradientTransform="matrix(20.03297,0,0,19.102507,-3.9472134,603.14466)"
       gradientUnits="userSpaceOnUse">
      <stop
         stop-color="#11c2f4"
         offset="0"
         id="stop12" />
      <stop
         stop-color="#2dc5f4"
         offset="1"
         id="stop14" />
    </linearGradient>
    <linearGradient
       id="linearGradient8676"
       x1="-7.6728001"
       x2="-5.027"
       y1="-26.722"
       y2="-24.493"
       gradientTransform="matrix(19.102507,0,0,19.102507,-8.3673106,603.14466)"
       gradientUnits="userSpaceOnUse">
      <stop
         stop-color="#0954a8"
         offset="0"
         id="stop7" />
      <stop
         stop-color="#0954a8"
         offset="1"
         id="stop9" />
    </linearGradient>
    <linearGradient
       id="linearGradient8684"
       x1="-4.4977999"
       x2="-1.852"
       y1="-26.722"
       y2="-24.111"
       gradientTransform="matrix(20.03297,0,0,19.102507,-3.9472134,603.14466)"
       gradientUnits="userSpaceOnUse">
      <stop
         stop-color="#339ed9"
         offset="0"
         id="stop2" />
      <stop
         stop-color="#2386c9"
         offset="1"
         id="stop4" />
    </linearGradient>
    <filter
       inkscape:collect="always"
       style="color-interpolation-filters:sRGB"
       id="filter35595"
       x="-0.3"
       y="-0.3"
       width="1.6"
       height="1.6">
      <feGaussianBlur
         inkscape:collect="always"
         stdDeviation="25.135416"
         id="feGaussianBlur35597" />
    </filter>
    <linearGradient
       inkscape:collect="always"
       xlink:href="#linearGradient4706"
       id="linearGradient592"
       gradientUnits="userSpaceOnUse"
       gradientTransform="matrix(8.0681578,0,0,8.0681578,360.80759,-318.82263)"
       x1="17.000004"
       y1="-28.000006"
       x2="17.000004"
       y2="-4.8191843" />
    <linearGradient
       inkscape:collect="always"
       id="linearGradient4706">
      <stop
         style="stop-color:#2cb9fe;stop-opacity:1"
         offset="0"
         id="stop4702" />
      <stop
         style="stop-color:#5c89fe;stop-opacity:1"
         offset="0.44060528"
         id="stop14372" />
      <stop
         style="stop-color:#1a2fe2;stop-opacity:1"
         offset="1"
         id="stop4704" />
    </linearGradient>
    <radialGradient
       inkscape:collect="always"
       xlink:href="#linearGradient16114"
       id="radialGradient594"
       gradientUnits="userSpaceOnUse"
       gradientTransform="matrix(1,-2.5915074e-7,0,0.96296249,0,-167.09538)"
       cx="497.966"
       cy="-183.34282"
       fx="497.966"
       fy="-183.34282"
       r="100.54167" />
    <linearGradient
       inkscape:collect="always"
       id="linearGradient16114">
      <stop
         style="stop-color:#1b8cf9;stop-opacity:1"
         offset="0"
         id="stop16110" />
      <stop
         style="stop-color:#198af6;stop-opacity:1"
         offset="0.1"
         id="stop29383" />
      <stop
         style="stop-color:#4c78f5;stop-opacity:0;"
         offset="1"
         id="stop16112" />
    </linearGradient>
    <radialGradient
       inkscape:collect="always"
       xlink:href="#linearGradient22203"
       id="radialGradient596"
       gradientUnits="userSpaceOnUse"
       gradientTransform="matrix(-1,0,0,-0.96296259,995.93195,-1212.7205)"
       cx="497.96597"
       cy="-693.68164"
       fx="497.96597"
       fy="-693.68164"
       r="100.54167" />
    <linearGradient
       inkscape:collect="always"
       id="linearGradient22203">
      <stop
         style="stop-color:#24caf4;stop-opacity:1"
         offset="0"
         id="stop22199" />
      <stop
         style="stop-color:#5781f9;stop-opacity:0;"
         offset="1"
         id="stop22201" />
    </linearGradient>
    <linearGradient
       inkscape:collect="always"
       xlink:href="#linearGradient34947"
       id="linearGradient598"
       gradientUnits="userSpaceOnUse"
       gradientTransform="translate(611.84371)"
       x1="-113.87772"
       y1="-326.25809"
       x2="-113.87772"
       y2="-296.26913" />
    <linearGradient
       inkscape:collect="always"
       id="linearGradient34947">
      <stop
         style="stop-color:#213061;stop-opacity:1"
         offset="0"
         id="stop34943" />
      <stop
         style="stop-color:#2c333e;stop-opacity:0;"
         offset="1"
         id="stop34945" />
    </linearGradient>
  </defs>
  <sodipodi:namedview
     id="namedview39"
     bordercolor="#666666"
     borderopacity="1"
     gridtolerance="10"
     guidetolerance="10"
     inkscape:current-layer="svg4379"
     inkscape:cx="70.08761"
     inkscape:cy="102.37797"
     inkscape:pageopacity="0"
     inkscape:pageshadow="2"
     inkscape:window-height="1005"
     inkscape:window-maximized="1"
     inkscape:window-width="1920"
     inkscape:window-x="1920"
     inkscape:window-y="0"
     inkscape:zoom="1.9975"
     objecttolerance="10"
     pagecolor="#dfe2e4"
     showgrid="true"
     inkscape:snap-bbox="true"
     inkscape:bbox-nodes="true"
     inkscape:snap-bbox-edge-midpoints="true"
     inkscape:document-rotation="0"
     inkscape:pagecheckerboard="0"
     inkscape:showpageshadow="0"
     inkscape:deskcolor="#dfe2e4">
    <inkscape:grid
       id="grid839"
       type="xygrid" />
  </sodipodi:namedview>
  <g
     id="g568"
     transform="matrix(0.88327826,0,0,0.88327767,-199.13668,-64.541703)">
    <path
       id="path556"
       style="opacity:0.3;fill:#213ce5;fill-opacity:1;stroke-width:8.06813;stroke-linejoin:round;filter:url(#filter35595)"
       d="m 253.01996,50.81392 c -8.25185,0 -14.89521,6.64336 -14.89521,14.89521 v 66.9985 0.0289 14.86627 h 14.2844 c 0.2042,0.007 0.4045,0.0289 0.61081,0.0289 h 67.02795 14.89522 V 132.73657 65.70913 50.81392 h -14.89522 z m 89.37026,0 v 14.89521 67.02744 14.89521 h 14.89521 67.02795 14.8947 V 132.73657 65.70913 c 0,-8.25185 -6.64284,-14.89521 -14.8947,-14.89521 H 357.28543 Z M 238.12475,155.07939 v 14.89521 67.02744 c 0,8.25185 6.64336,14.89521 14.89521,14.89521 h 67.02795 14.89522 V 237.00204 169.9746 155.07939 h -14.89522 -67.02795 z m 104.26547,0 v 14.89521 67.02744 14.89521 h 14.89521 67.02795 c 8.25186,0 14.8947,-6.64336 14.8947,-14.89521 V 169.9746 155.07939 h -14.8947 -67.02795 z"
       transform="matrix(0.57705802,0,0,0.57705802,143.23624,78.559129)" />
    <g
       id="g566"
       transform="matrix(0.57705802,0,0,0.57705802,53.459997,430.81855)">
      <path
         id="path558"
         style="fill:url(#linearGradient592);fill-opacity:1;stroke-width:8.06813;stroke-linejoin:round"
         d="m 408.59573,-544.73109 c -8.25185,0 -14.8947,6.64336 -14.8947,14.89521 v 66.9985 0.0289 14.86627 h 14.28389 c 0.20419,0.007 0.4045,0.0289 0.61081,0.0289 h 67.02795 14.89522 v -14.89521 -67.02744 -14.89521 h -14.89522 z m 89.37077,0 v 14.89521 67.02744 14.89521 h 14.8947 67.02795 14.89522 v -14.89521 -67.02744 c 0,-8.25185 -6.64337,-14.89521 -14.89522,-14.89521 H 512.8612 Z m -104.26547,104.26547 v 14.89521 67.02744 c 0,8.25185 6.64285,14.89521 14.8947,14.89521 h 67.02795 14.89522 v -14.89521 -67.02744 -14.89521 h -14.89522 -67.02795 z m 104.26547,0 v 14.89521 67.02744 14.89521 h 14.8947 67.02795 c 8.25185,0 14.89522,-6.64336 14.89522,-14.89521 v -67.02744 -14.89521 H 579.88915 512.8612 Z" />
      <path
         id="path560"
         style="fill:url(#radialGradient594);fill-opacity:1;stroke-width:8.06813;stroke-linejoin:round"
         d="m 393.70103,-440.46562 v 14.89521 67.02744 c 0,8.25185 6.64285,14.89521 14.8947,14.89521 h 67.02795 14.89522 v -14.89521 -67.02744 -14.89521 h -14.89522 -67.02795 z m 104.26496,0 v 14.89521 67.02744 14.89521 h 14.89521 67.02795 c 8.25185,0 14.89522,-6.64336 14.89522,-14.89521 v -67.02744 -14.89521 H 579.88915 512.8612 Z" />
      <path
         id="path562"
         style="fill:url(#radialGradient596);fill-opacity:1;stroke-width:8.06813;stroke-linejoin:round"
         d="m 408.59573,-544.73101 c -8.25185,0 -14.89522,6.64336 -14.89522,14.89521 v 66.9985 0.0289 14.86627 h 14.2844 c 0.2042,0.007 0.40451,0.0289 0.61082,0.0289 h 67.02795 14.8947 v -14.89521 -67.02744 -14.89521 h -14.8947 z m 89.37025,0 v 14.89521 67.02744 14.89521 h 14.89522 67.02795 14.8947 v -14.89521 -67.02744 c 0,-8.25185 -6.64285,-14.89521 -14.8947,-14.89521 H 512.8612 Z" />
      <path
         id="path564"
         style="fill:url(#linearGradient598);fill-opacity:1;stroke-width:8.06813;stroke-linejoin:round"
         d="m 393.70103,-229.44022 v -14.89521 -67.02744 c 0,-8.25185 6.64285,-14.89521 14.8947,-14.89521 h 67.02795 14.89522 v 14.89521 67.02744 14.89521 h -14.89522 -67.02795 z m 104.26496,0 v -14.89521 -67.02744 -14.89521 h 14.89521 67.02795 c 8.25185,0 14.89522,6.64336 14.89522,14.89521 v 67.02744 14.89521 H 579.88915 512.8612 Z" />
    </g>
  </g>
</svg>
