<?xml version="1.0" encoding="UTF-8" standalone="no"?>
<svg
   width="32"
   height="32"
   version="1.1"
   id="svg80"
   sodipodi:docname="application.svg"
   inkscape:version="1.4 (e7c3feb100, 2024-10-09)"
   xml:space="preserve"
   xmlns:inkscape="http://www.inkscape.org/namespaces/inkscape"
   xmlns:sodipodi="http://sodipodi.sourceforge.net/DTD/sodipodi-0.dtd"
   xmlns="http://www.w3.org/2000/svg"
   xmlns:svg="http://www.w3.org/2000/svg"><sodipodi:namedview
     id="namedview82"
     pagecolor="#c8c8c8"
     bordercolor="#666666"
     borderopacity="1.0"
     inkscape:showpageshadow="2"
     inkscape:pageopacity="0.0"
     inkscape:pagecheckerboard="0"
     inkscape:deskcolor="#d1d1d1"
     showgrid="true"
     inkscape:zoom="5.6568543"
     inkscape:cx="-18.73833"
     inkscape:cy="16.970563"
     inkscape:window-width="1920"
     inkscape:window-height="952"
     inkscape:window-x="0"
     inkscape:window-y="34"
     inkscape:window-maximized="1"
     inkscape:current-layer="svg80"
     showguides="true"><inkscape:grid
       type="xygrid"
       id="grid190"
       spacingx="0.5"
       spacingy="0.5"
       empspacing="2"
       color="#e500c2"
       opacity="0.14902"
       originx="0"
       originy="0"
       units="px" /></sodipodi:namedview><defs
     id="defs3"><style
       id="current-color-scheme"
       type="text/css">.ColorScheme-Text { color:#363636; }</style></defs><g
     id="application-menu"><rect
       x="0"
       width="32"
       height="32"
       opacity="0"
       id="rect5"
       y="0" /><path
       id="path1"
       style="fill:#ffffff;stroke-linejoin:round"
       d="M 16,1 A 15,15 0 0 0 1,16 15,15 0 0 0 16,31 15,15 0 0 0 31,16 15,15 0 0 0 16,1 Z m 0,1 A 14,14 0 0 1 30,16 14,14 0 0 1 16,30 14,14 0 0 1 2,16 14,14 0 0 1 16,2 Z" /><circle
       style="fill:#ffffff;stroke-linejoin:round"
       id="path2"
       cx="10.5"
       cy="16"
       r="1.5" /><circle
       style="fill:#ffffff;stroke-linejoin:round"
       id="circle2"
       cx="16"
       cy="16"
       r="1.5" /><circle
       style="fill:#ffffff;stroke-linejoin:round"
       id="circle3"
       cx="21.5"
       cy="16"
       r="1.5" /></g><g
     id="22-22-application-menu"><rect
       id="rect222"
       width="22"
       height="22"
       x="-22.5"
       y="10"
       style="fill:none" /><g
       id="g5"
       transform="translate(-27.5,-23)"><path
         id="path3"
         style="fill:#ffffff;stroke-linejoin:round"
         d="m 16,36 a 8,8 0 0 0 -8,8 8,8 0 0 0 8,8 8,8 0 0 0 8,-8 8,8 0 0 0 -8,-8 z m 0,1 a 7,7 0 0 1 7,7 7,7 0 0 1 -7,7 7,7 0 0 1 -7,-7 7,7 0 0 1 7,-7 z" /><circle
         style="fill:#ffffff;stroke-width:2;stroke-linejoin:round"
         id="path4"
         cx="13"
         cy="44"
         r="1" /><circle
         style="fill:#ffffff;stroke-width:2;stroke-linejoin:round"
         id="circle4"
         cx="16"
         cy="44"
         r="1" /><circle
         style="fill:#ffffff;stroke-width:2;stroke-linejoin:round"
         id="circle5"
         cx="19"
         cy="44"
         r="1" /></g></g><g
     id="16-16-application-menu"
     transform="translate(-49,-23)"><path
       id="path6"
       style="fill:#ffffff;stroke-linejoin:round"
       d="m 16,36 a 8,8 0 0 0 -8,8 8,8 0 0 0 8,8 8,8 0 0 0 8,-8 8,8 0 0 0 -8,-8 z m 0,1 a 7,7 0 0 1 7,7 7,7 0 0 1 -7,7 7,7 0 0 1 -7,-7 7,7 0 0 1 7,-7 z" /><circle
       style="fill:#ffffff;stroke-width:2;stroke-linejoin:round"
       id="circle6"
       cx="13"
       cy="44"
       r="1" /><circle
       style="fill:#ffffff;stroke-width:2;stroke-linejoin:round"
       id="circle7"
       cx="16"
       cy="44"
       r="1" /><circle
       style="fill:#ffffff;stroke-width:2;stroke-linejoin:round"
       id="circle8"
       cx="19"
       cy="44"
       r="1" /></g></svg>
