<?xml version="1.0" encoding="UTF-8" standalone="no"?>
<svg
   width="32"
   height="32"
   version="1.1"
   id="svg12"
   sodipodi:docname="nulloy.svg"
   inkscape:version="1.3.2 (091e20ef0f, 2023-11-25, custom)"
   xmlns:inkscape="http://www.inkscape.org/namespaces/inkscape"
   xmlns:sodipodi="http://sodipodi.sourceforge.net/DTD/sodipodi-0.dtd"
   xmlns="http://www.w3.org/2000/svg"
   xmlns:svg="http://www.w3.org/2000/svg">
  <style
     id="current-color-scheme"
     type="text/css">.ColorScheme-Text { color:#eceff4; }
</style>
  <defs
     id="defs16" />
  <sodipodi:namedview
     id="namedview14"
     pagecolor="#c8c8c8"
     bordercolor="#000000"
     borderopacity="1"
     inkscape:showpageshadow="2"
     inkscape:pageopacity="0"
     inkscape:pagecheckerboard="0"
     inkscape:deskcolor="#cccccc"
     showgrid="true"
     inkscape:zoom="11.313709"
     inkscape:cx="7.2036503"
     inkscape:cy="18.031223"
     inkscape:window-width="1920"
     inkscape:window-height="1003"
     inkscape:window-x="0"
     inkscape:window-y="0"
     inkscape:window-maximized="1"
     inkscape:current-layer="svg12"
     showguides="false">
    <inkscape:grid
       type="xygrid"
       id="grid559"
       originx="0"
       originy="0"
       spacingy="1"
       spacingx="1"
       units="px"
       visible="true" />
  </sodipodi:namedview>
  <g
     id="22-22-nulloy"
     transform="translate(27,5.0000005)">
    <rect
       style="opacity:0.001"
       width="22"
       height="22"
       x="5"
       y="5"
       id="rect2" />
    <path
       style="fill-opacity:1;fill:#fbfbfb"
       d="m 7.8007812,8 0.015625,0.109375 c 0.38758,2.568739 0.6101395,4.688491 0.8984376,5.976563 0.2882979,1.288071 0.646903,2.055427 1.3203122,2.480468 0.673409,0.42504 1.632521,0.497668 3.107422,0.451172 1.474902,-0.04647 3.470212,-0.41522 6.22461,-0.5 l 0.08984,-0.002 -0.01172,-0.08594 C 19.18584,14.455564 19.099433,12.986687 18.923828,12.001953 18.748223,11.017214 18.473372,10.402694 17.84375,9.9863281 17.214126,9.5699601 16.249941,9.3509211 14.683594,9.0957031 13.117248,8.8404851 10.946504,8.5523653 7.9082031,8.0195312 Z M 21,8 c -1.101094,0 -2,0.8931412 -2,2 0,1.106982 0.898917,2 2,2 1.101083,0 2,-0.893018 2,-2 0,-1.1068588 -0.898906,-2 -2,-2 z m 3.230469,3.529297 -0.16211,0.0957 c -1.297474,0.775815 -2.256257,0.91491 -2.998047,1.322266 -0.370893,0.203677 -0.685086,0.478048 -0.941406,0.925781 -0.256321,0.447738 -0.457447,1.065933 -0.61914,1.966797 l -0.02344,0.138672 0.128906,-0.04883 c 2.014055,-0.753822 2.909082,-0.820274 3.451172,-1.212891 0.271046,-0.196312 0.438077,-0.473804 0.591797,-0.933594 0.153721,-0.459789 0.297716,-1.10737 0.527344,-2.070312 z m -0.166016,3.371094 -0.214844,0.07031 c -2.152232,0.718146 -3.034326,0.924717 -3.486328,1.253906 -0.226003,0.16459 -0.333616,0.365254 -0.416015,0.648438 -0.0824,0.283189 -0.146477,0.65599 -0.294922,1.199219 l -0.03516,0.126953 0.128906,-0.0293 c 1.303416,-0.287641 1.903723,-0.35643 2.412109,-0.714844 0.508386,-0.358413 0.893709,-0.983894 1.783203,-2.365234 z m -4.546875,2.039062 -0.109375,0.0078 c -3.273446,0.17059 -4.97801,0.192331 -6.113281,0.917968 -0.567635,0.362799 -0.978567,0.949706 -1.353516,1.894532 -0.374949,0.944826 -0.719444,1.920856 -1.158203,3.746093 l -0.03125,0.132813 0.130859,-0.03906 c 1.953683,-0.573969 3.339572,-0.822115 4.351563,-0.984375 1.011989,-0.162254 1.653327,-0.23478 2.128906,-0.476562 0.47558,-0.241783 0.762858,-0.653913 1.048828,-1.44336 0.285969,-0.789448 0.578918,-1.835053 1.076172,-3.648437 z m 3.929688,0.07617 c -0.961323,1.008581 -1.781951,1.19094 -2.417969,1.414063 -0.31801,0.111564 -0.594522,0.235462 -0.802735,0.482421 -0.208213,0.246958 -0.34213,0.608529 -0.394531,1.181641 l -0.0078,0.09961 0.09766,-0.01172 c 1.169105,-0.151304 1.825311,-0.268194 2.322266,-0.685547 0.496955,-0.417353 0.813565,-1.113546 1.333984,-2.396485 z m -11.78711,1.886719 -0.142578,0.03711 c -1.484411,0.371915 -2.1690519,0.827698 -2.5937499,1.582031 -0.424698,0.754333 -0.5954657,1.784385 -1.1054687,3.330078 L 7.7695312,24 7.9199219,23.949219 c 0.67387,-0.222834 1.1517931,-0.383803 1.5175781,-0.566407 0.365785,-0.182576 0.620186,-0.389667 0.826172,-0.697265 0.411972,-0.61519 0.64305,-1.607648 1.347656,-3.646485 z m 11.472656,0.902344 -0.144531,0.05469 c -1.191389,0.453627 -1.8455,0.656192 -2.203125,0.966797 -0.178813,0.155303 -0.2777,0.342515 -0.3125,0.582031 -0.0348,0.239516 -0.012,0.257178 0.03516,0.646485 l 0.0098,0.08984 0.08789,-0.02148 c 0.406632,-0.102815 0.702196,-0.1021 0.939453,-0.0918 0.237255,0.0103 0.423722,0.03653 0.597656,-0.04492 0.173933,-0.08146 0.306779,-0.262931 0.447266,-0.613281 0.140486,-0.350356 0.292452,-0.606726 0.503906,-1.419922 z"
       id="path4"
       class="ColorScheme-Text" />
  </g>
  <g
     id="nulloy">
    <rect
       style="opacity:0.00100002"
       width="32"
       height="32"
       x="0"
       y="0"
       id="rect7" />
    <path
       style="fill:#fbfbfb;fill-opacity:1;stroke-width:1.5"
       d="m 3.7011098,3.9960306 0.023446,0.1640634 c 0.5813731,3.8531288 0.9152146,7.032773 1.3476639,8.964889 0.4324493,1.932117 0.9703594,3.083158 1.9804784,3.720721 1.0101183,0.637563 2.448794,0.746506 4.6611549,0.676761 2.212367,-0.0697 5.205345,-0.622835 9.33696,-0.750001 l 0.134763,-0.0029 -0.01757,-0.128911 C 20.778792,13.679425 20.64918,11.476099 20.385772,9.9989893 20.122364,8.5218745 19.710085,7.6000893 18.765647,6.9755392 17.821207,6.3509838 16.37492,6.0224239 14.02539,5.6395948 11.675857,5.256766 8.419726,4.8245837 3.8622511,4.0253286 Z m 19.7989272,0 c -1.651649,0 -3.000015,1.3397197 -3.000015,3.0000148 0,1.660482 1.348383,3.0000141 3.000015,3.0000141 1.651632,0 3.000015,-1.3395321 3.000015,-3.0000141 0,-1.6602951 -1.348363,-3.0000148 -3.000015,-3.0000148 z m 4.845728,5.2939708 -0.243164,0.1435519 c -1.946222,1.1637287 -3.384403,1.3723727 -4.497094,1.9834087 -0.556342,0.305518 -1.027634,0.717077 -1.412118,1.388678 -0.384483,0.67161 -0.686174,1.598908 -0.928713,2.950212 l -0.03516,0.208007 0.193359,-0.07322 c 3.021098,-1.130741 4.363646,-1.230419 5.176787,-1.819347 0.406569,-0.294472 0.657116,-0.71071 0.887699,-1.400399 0.230582,-0.689687 0.446576,-1.661063 0.791019,-3.1054836 z m -0.249025,5.0566666 -0.322269,0.105469 c -3.228362,1.077223 -4.551508,1.387081 -5.229516,1.880868 -0.339006,0.246886 -0.500428,0.547884 -0.624026,0.972662 -0.123601,0.424784 -0.219717,0.983989 -0.442386,1.798835 l -0.05273,0.190431 0.193359,-0.04394 c 1.955129,-0.431466 2.855594,-0.534651 3.618176,-1.072272 0.762584,-0.537624 1.340571,-1.475849 2.674819,-3.547869 z m -6.820347,3.05861 -0.164064,0.01164 c -4.910195,0.255885 -7.467051,0.288499 -9.169967,1.376959 -0.851455,0.544202 -1.467859,1.424566 -2.0302848,2.841812 -0.5624258,1.417246 -1.0791713,2.881298 -1.7373124,5.61917 l -0.046877,0.199217 0.1962892,-0.05859 c 2.930538,-0.860957 5.009384,-1.233178 6.527377,-1.476569 1.517993,-0.243382 2.480004,-0.352172 3.193376,-0.714848 0.713374,-0.362676 1.144293,-0.980873 1.573248,-2.165049 0.428956,-1.184179 0.868382,-2.752594 1.614268,-5.472683 z m 5.894561,0.114252 c -1.44199,1.512881 -2.672939,1.786422 -3.626971,2.121107 -0.477016,0.167345 -0.891787,0.353193 -1.204108,0.723634 -0.312323,0.370438 -0.513196,0.912797 -0.5918,1.772469 l -0.01165,0.149418 0.146491,-0.01758 c 1.753667,-0.226956 2.737982,-0.402294 3.483419,-1.028326 0.745435,-0.626032 1.220353,-1.670327 2.000984,-3.594746 z m -17.680753,2.830094 -0.2138675,0.05567 c -2.2266283,0.557878 -3.2535946,1.241556 -3.8906447,2.37306 -0.6370504,1.131505 -0.8932036,2.676591 -1.658212,4.995142 l -0.073243,0.222662 0.2255876,-0.07617 c 1.0108108,-0.334255 1.7276989,-0.57571 2.2763792,-0.849614 0.5486801,-0.273869 0.930284,-0.584506 1.2392641,-1.045904 0.6179611,-0.922791 0.9645808,-2.411485 2.0214952,-5.469757 z m 17.20907,1.353523 -0.216796,0.08205 c -1.787092,0.680445 -2.768265,0.984292 -3.304705,1.450202 -0.26822,0.232957 -0.416552,0.513775 -0.468753,0.873052 -0.0522,0.359277 -0.018,0.385768 0.05276,0.969731 l 0.0147,0.134761 0.131835,-0.03223 c 0.609952,-0.154222 1.053299,-0.15315 1.409188,-0.137698 0.355883,0.01545 0.635584,0.05479 0.896486,-0.0674 0.260902,-0.122187 0.460171,-0.3944 0.670905,-0.919928 0.21073,-0.525535 0.438679,-0.910093 0.755862,-2.129894 z"
       id="path1"
       class="ColorScheme-Text" />
  </g>
</svg>
