<?xml version="1.0" encoding="UTF-8" standalone="no"?>
<svg
   width="32"
   height="32"
   version="1.1"
   id="svg12"
   sodipodi:docname="start.svg"
   inkscape:version="1.2.1 (9c6d41e410, 2022-07-14)"
   xmlns:inkscape="http://www.inkscape.org/namespaces/inkscape"
   xmlns:sodipodi="http://sodipodi.sourceforge.net/DTD/sodipodi-0.dtd"
   xmlns:xlink="http://www.w3.org/1999/xlink"
   xmlns="http://www.w3.org/2000/svg"
   xmlns:svg="http://www.w3.org/2000/svg"
   xmlns:rdf="http://www.w3.org/1999/02/22-rdf-syntax-ns#"
   xmlns:cc="http://creativecommons.org/ns#"
   xmlns:dc="http://purl.org/dc/elements/1.1/">
  <metadata
     id="metadata16">
    <rdf:RDF>
      <cc:Work
         rdf:about="">
        <dc:format>image/svg+xml</dc:format>
        <dc:type
           rdf:resource="http://purl.org/dc/dcmitype/StillImage" />
        <dc:title />
      </cc:Work>
    </rdf:RDF>
  </metadata>
  <sodipodi:namedview
     pagecolor="#c8c8c8"
     bordercolor="#666666"
     borderopacity="1"
     objecttolerance="10"
     gridtolerance="10"
     guidetolerance="10"
     inkscape:pageopacity="0"
     inkscape:pageshadow="2"
     inkscape:window-width="1920"
     inkscape:window-height="1005"
     id="namedview14"
     showgrid="true"
     inkscape:zoom="11.313709"
     inkscape:cx="19.975766"
     inkscape:cy="28.505242"
     inkscape:window-x="0"
     inkscape:window-y="0"
     inkscape:window-maximized="1"
     inkscape:current-layer="svg12"
     inkscape:snap-bbox="true"
     inkscape:bbox-nodes="true"
     inkscape:snap-bbox-edge-midpoints="true"
     inkscape:snap-nodes="true"
     inkscape:document-rotation="0"
     inkscape:object-paths="true"
     inkscape:snap-intersection-paths="true"
     inkscape:snap-smooth-nodes="true"
     inkscape:snap-midpoints="true"
     inkscape:pagecheckerboard="0"
     inkscape:showpageshadow="0"
     inkscape:deskcolor="#c8c8c8">
    <inkscape:grid
       type="xygrid"
       id="grid4539" />
  </sodipodi:namedview>
  <defs
     id="defs7386">
    <style
       id="current-color-scheme"
       type="text/css">
   .ColorScheme-Text { color:#dedede; } .ColorScheme-Highlight { color:#5294e2; } .ColorScheme-ButtonBackground { color:#dedede; }
  </style>
    <linearGradient
       id="linearGradient8660"
       x1="-7.6728001"
       x2="-5.027"
       y1="-29.104"
       y2="-27.252001"
       gradientTransform="matrix(3.3620413,0,0,3.3620413,56.979969,79.985673)"
       gradientUnits="userSpaceOnUse">
      <stop
         stop-color="#00bffb"
         offset="0"
         id="stop17" />
      <stop
         stop-color="#01a0f3"
         offset="1"
         id="stop19" />
    </linearGradient>
    <linearGradient
       id="linearGradient8668"
       x1="-4.7624002"
       x2="-1.852"
       y1="-27.252001"
       y2="-30.122999"
       gradientTransform="matrix(3.5258028,0,0,3.3620413,57.757906,79.985673)"
       gradientUnits="userSpaceOnUse">
      <stop
         stop-color="#11c2f4"
         offset="0"
         id="stop12" />
      <stop
         stop-color="#2dc5f4"
         offset="1"
         id="stop14" />
    </linearGradient>
    <linearGradient
       id="linearGradient8676"
       x1="-7.6728001"
       x2="-5.027"
       y1="-26.722"
       y2="-24.493"
       gradientTransform="matrix(3.3620413,0,0,3.3620413,56.979969,79.985673)"
       gradientUnits="userSpaceOnUse">
      <stop
         stop-color="#0954a8"
         offset="0"
         id="stop7" />
      <stop
         stop-color="#0954a8"
         offset="1"
         id="stop9" />
    </linearGradient>
    <linearGradient
       id="linearGradient8684"
       x1="-4.4977999"
       x2="-1.852"
       y1="-26.722"
       y2="-24.111"
       gradientTransform="matrix(3.5258028,0,0,3.3620413,57.757906,79.985673)"
       gradientUnits="userSpaceOnUse">
      <stop
         stop-color="#339ed9"
         offset="0"
         id="stop2" />
      <stop
         stop-color="#2386c9"
         offset="1"
         id="stop4" />
    </linearGradient>
    <linearGradient
       inkscape:collect="always"
       xlink:href="#linearGradient4706"
       id="linearGradient45950"
       gradientUnits="userSpaceOnUse"
       gradientTransform="matrix(17.596706,0,0,17.596706,-251.62993,-265.96599)"
       x1="17.000004"
       y1="-28.000006"
       x2="17.000004"
       y2="-4.8191843" />
    <linearGradient
       inkscape:collect="always"
       id="linearGradient4706">
      <stop
         style="stop-color:#2cb9fe;stop-opacity:1"
         offset="0"
         id="stop4702" />
      <stop
         style="stop-color:#5c89fe;stop-opacity:1"
         offset="0.44060528"
         id="stop14372" />
      <stop
         style="stop-color:#1a2fe2;stop-opacity:1"
         offset="1"
         id="stop4704" />
    </linearGradient>
    <radialGradient
       inkscape:collect="always"
       xlink:href="#linearGradient16114"
       id="radialGradient45952"
       gradientUnits="userSpaceOnUse"
       gradientTransform="matrix(2.1810067,-5.652095e-7,0,2.1002276,-1038.5537,64.952157)"
       cx="497.966"
       cy="-183.34282"
       fx="497.966"
       fy="-183.34282"
       r="100.54167" />
    <linearGradient
       inkscape:collect="always"
       id="linearGradient16114">
      <stop
         style="stop-color:#1b8cf9;stop-opacity:1"
         offset="0"
         id="stop16110" />
      <stop
         style="stop-color:#198af6;stop-opacity:1"
         offset="0.1"
         id="stop29383" />
      <stop
         style="stop-color:#4c78f5;stop-opacity:0;"
         offset="1"
         id="stop16112" />
    </linearGradient>
    <radialGradient
       inkscape:collect="always"
       xlink:href="#linearGradient22203"
       id="radialGradient45954"
       gradientUnits="userSpaceOnUse"
       gradientTransform="matrix(-2.1810067,0,0,-2.1002279,1133.5806,-2215.5632)"
       cx="497.96597"
       cy="-693.68164"
       fx="497.96597"
       fy="-693.68164"
       r="100.54167" />
    <linearGradient
       inkscape:collect="always"
       id="linearGradient22203">
      <stop
         style="stop-color:#24caf4;stop-opacity:1"
         offset="0"
         id="stop22199" />
      <stop
         style="stop-color:#5781f9;stop-opacity:0;"
         offset="1"
         id="stop22201" />
    </linearGradient>
    <linearGradient
       inkscape:collect="always"
       xlink:href="#linearGradient4706"
       id="linearGradient977"
       gradientUnits="userSpaceOnUse"
       gradientTransform="matrix(17.596706,0,0,17.596706,-251.62993,-265.96599)"
       x1="17.000004"
       y1="-28.000006"
       x2="17.000004"
       y2="-4.8191843" />
    <radialGradient
       inkscape:collect="always"
       xlink:href="#linearGradient16114"
       id="radialGradient979"
       gradientUnits="userSpaceOnUse"
       gradientTransform="matrix(2.1810067,-5.652095e-7,0,2.1002276,-1038.5537,64.952157)"
       cx="497.966"
       cy="-183.34282"
       fx="497.966"
       fy="-183.34282"
       r="100.54167" />
    <radialGradient
       inkscape:collect="always"
       xlink:href="#linearGradient22203"
       id="radialGradient981"
       gradientUnits="userSpaceOnUse"
       gradientTransform="matrix(-2.1810067,0,0,-2.1002279,1133.5806,-2215.5632)"
       cx="497.96597"
       cy="-693.68164"
       fx="497.96597"
       fy="-693.68164"
       r="100.54167" />
  </defs>
  <g
     id="start-here-kde">
    <rect
       style="color:#bebebe;display:inline;overflow:visible;visibility:visible;fill:none;stroke:none;stroke-width:1;marker:none"
       id="rect6336-6"
       width="32"
       height="32"
       x="0"
       y="0" />
    <g
       id="g967"
       transform="matrix(0.06156439,0,0,0.06156439,14.074848,49.707377)">
      <path
         id="path45938"
         style="fill:url(#linearGradient45950);fill-opacity:1;stroke-width:17.5966;stroke-linejoin:round"
         d="m -147.40368,-758.67386 c -17.99734,0 -32.48544,14.48922 -32.48544,32.48656 v 146.12417 0.063 32.42344 h 31.15326 c 0.44534,0.0153 0.88222,0.063 1.33218,0.063 H -1.2152672 31.271307 v -32.48655 -146.1873 -32.48655 H -1.2152672 Z m 194.918253,0 v 32.48656 146.18729 32.48655 H 80.000013 226.18842 258.675 v -32.48655 -146.18729 c 0,-17.99734 -14.48924,-32.48656 -32.48658,-32.48656 H 80.000013 Z m -227.403693,227.40369 v 32.48655 146.1873 c 0,17.99734 14.4881,32.48655 32.48544,32.48655 H -1.2152672 31.271307 v -32.48655 -146.1873 -32.48655 H -1.2152672 -147.40368 Z m 227.403693,0 v 32.48655 146.1873 32.48655 h 32.48544 146.188407 c 17.99734,0 32.48658,-14.48921 32.48658,-32.48655 v -146.1873 -32.48655 H 226.18842 80.000013 Z" />
      <path
         id="path45940"
         style="fill:url(#radialGradient45952);fill-opacity:1;stroke-width:17.5966;stroke-linejoin:round"
         d="m -179.88912,-531.27017 v 32.48655 146.1873 c 0,17.99734 14.4881,32.48655 32.48544,32.48655 H -1.2152672 31.271307 v -32.48655 -146.1873 -32.48655 H -1.2152672 -147.40368 Z m 227.402581,0 v 32.48655 146.1873 32.48655 H 80.000013 226.18842 c 17.99734,0 32.48658,-14.48921 32.48658,-32.48655 v -146.1873 -32.48655 H 226.18842 80.000013 Z" />
      <path
         id="path45942"
         style="fill:url(#radialGradient45954);fill-opacity:1;stroke-width:17.5966;stroke-linejoin:round"
         d="m -147.40368,-758.67368 c -17.99734,0 -32.48657,14.48921 -32.48657,32.48655 v 146.12418 0.063 32.42343 h 31.15437 c 0.44536,0.0153 0.88224,0.063 1.3322,0.063 H -1.2152672 31.270173 v -32.48655 -146.18729 -32.48656 H -1.2152672 Z m 194.917119,0 v 32.48655 146.1873 32.48655 h 32.486574 146.188407 32.48544 v -32.48655 -146.1873 c 0,-17.99734 -14.4881,-32.48655 -32.48544,-32.48655 H 80.000013 Z" />
    </g>
  </g>
  <g
     id="22-22-start-here-kde">
    <circle
       r="11"
       cy="21"
       cx="49.972176"
       id="path822"
       style="opacity:0;fill:#ffffff;fill-opacity:1;stroke:none;stroke-width:1.24874;stroke-linecap:round;stroke-linejoin:round;stroke-miterlimit:4;stroke-dasharray:none;stroke-opacity:1;paint-order:normal" />
    <g
       id="g975"
       transform="matrix(0.04332309,0,0,0.04332309,48.793401,44.868144)">
      <path
         id="path969"
         style="fill:url(#linearGradient977);fill-opacity:1;stroke-width:17.5966;stroke-linejoin:round"
         d="m -147.40368,-758.67386 c -17.99734,0 -32.48544,14.48922 -32.48544,32.48656 v 146.12417 0.063 32.42344 h 31.15326 c 0.44534,0.0153 0.88222,0.063 1.33218,0.063 H -1.2152672 31.271307 v -32.48655 -146.1873 -32.48655 H -1.2152672 Z m 194.918253,0 v 32.48656 146.18729 32.48655 H 80.000013 226.18842 258.675 v -32.48655 -146.18729 c 0,-17.99734 -14.48924,-32.48656 -32.48658,-32.48656 H 80.000013 Z m -227.403693,227.40369 v 32.48655 146.1873 c 0,17.99734 14.4881,32.48655 32.48544,32.48655 H -1.2152672 31.271307 v -32.48655 -146.1873 -32.48655 H -1.2152672 -147.40368 Z m 227.403693,0 v 32.48655 146.1873 32.48655 h 32.48544 146.188407 c 17.99734,0 32.48658,-14.48921 32.48658,-32.48655 v -146.1873 -32.48655 H 226.18842 80.000013 Z" />
      <path
         id="path971"
         style="fill:url(#radialGradient979);fill-opacity:1;stroke-width:17.5966;stroke-linejoin:round"
         d="m -179.88912,-531.27017 v 32.48655 146.1873 c 0,17.99734 14.4881,32.48655 32.48544,32.48655 H -1.2152672 31.271307 v -32.48655 -146.1873 -32.48655 H -1.2152672 -147.40368 Z m 227.402581,0 v 32.48655 146.1873 32.48655 H 80.000013 226.18842 c 17.99734,0 32.48658,-14.48921 32.48658,-32.48655 v -146.1873 -32.48655 H 226.18842 80.000013 Z" />
      <path
         id="path973"
         style="fill:url(#radialGradient981);fill-opacity:1;stroke-width:17.5966;stroke-linejoin:round"
         d="m -147.40368,-758.67368 c -17.99734,0 -32.48657,14.48921 -32.48657,32.48655 v 146.12418 0.063 32.42343 h 31.15437 c 0.44536,0.0153 0.88224,0.063 1.3322,0.063 H -1.2152672 31.270173 v -32.48655 -146.18729 -32.48656 H -1.2152672 Z m 194.917119,0 v 32.48655 146.1873 32.48655 h 32.486574 146.188407 32.48544 v -32.48655 -146.1873 c 0,-17.99734 -14.4881,-32.48655 -32.48544,-32.48655 H 80.000013 Z" />
    </g>
  </g>
</svg>
